<svg width="1320" height="68" viewBox="0 0 1320 68" fill="none" xmlns="http://www.w3.org/2000/svg">
<mask id="mask0_275_1224" style="mask-type:alpha" maskUnits="userSpaceOnUse" x="0" y="0" width="1320" height="69">
<rect width="1320" height="68.0063" fill="#181818"/>
</mask>
<g mask="url(#mask0_275_1224)">
<mask id="path-2-inside-1_275_1224" fill="white">
<path fillRule="evenodd" clipRule="evenodd" d="M629.999 68.0077L628 72.2563H692L690.001 68.0077H1940V63.7573H688.001L660 4.25L631.999 63.7573H-620V68.0077H629.999Z"/>
</mask>
<path d="M628 72.2563L624.381 70.5532L621.697 76.2563H628V72.2563ZM629.999 68.0077L633.619 69.7108L636.302 64.0077H629.999V68.0077ZM692 72.2563V76.2563H698.303L695.619 70.5532L692 72.2563ZM690.001 68.0077V64.0077H683.698L686.381 69.7108L690.001 68.0077ZM1940 68.0077V72.0077H1944V68.0077H1940ZM1940 63.7573H1944V59.7573H1940V63.7573ZM688.001 63.7573L684.381 65.4604L685.462 67.7573H688.001V63.7573ZM660 4.25L663.619 2.54694L660 -5.14486L656.381 2.54694L660 4.25ZM631.999 63.7573V67.7573H634.538L635.619 65.4604L631.999 63.7573ZM-620 63.7573V59.7573H-624V63.7573H-620ZM-620 68.0077H-624V72.0077H-620V68.0077ZM631.619 73.9593L633.619 69.7108L626.38 66.3047L624.381 70.5532L631.619 73.9593ZM692 68.2563H628V76.2563H692V68.2563ZM686.381 69.7108L688.381 73.9593L695.619 70.5532L693.62 66.3047L686.381 69.7108ZM1940 64.0077H690.001V72.0077H1940V64.0077ZM1936 63.7573V68.0077H1944V63.7573H1936ZM688.001 67.7573H1940V59.7573H688.001V67.7573ZM656.381 5.95306L684.381 65.4604L691.62 62.0543L663.619 2.54694L656.381 5.95306ZM635.619 65.4604L663.619 5.95306L656.381 2.54694L628.38 62.0543L635.619 65.4604ZM-620 67.7573H631.999V59.7573H-620V67.7573ZM-616 68.0077V63.7573H-624V68.0077H-616ZM629.999 64.0077H-620V72.0077H629.999V64.0077Z" fill="#09ECD0" mask="url(#path-2-inside-1_275_1224)"/>
</g>
</svg>
