<svg id="logo-ac-3" xmlns="http://www.w3.org/2000/svg" xml:space="preserve" width="212" height="136"><defs><clippath id="logo-ac-3-clip"><path d="M166.31 68.053 166 68h46V0H0v132h10.127l42.288-86.186 7.004 14.067L24.033 132H37v4h175v-12.712l-45.69-55.235z"></path></clippath></defs><g fill="none" stroke="#333" stroke-miterlimit="10" stroke-width="5" style="clip-path:url(#logo-ac-3-clip)"><path d="M3.5 134 65.415 7.814l44.812 89.816c10.729 20.403 32.131 34.317 56.784 34.317 16.034 0 30.688-5.895 41.928-15.625" id="logo-ac-3-path-3a"></path><path d="M52.4 64.528 85 130h41.25l-16.021-32.367-.002-.002c-4.681-8.902-7.329-19.039-7.329-29.795 0-35.409 28.704-64.113 64.113-64.113 15.425 0 29.864 5.215 42.202 15.885" id="logo-ac-3-path-3b"></path><path d="m209 16.833-22.017 26.48a31.367 31.367 0 0 0-19.973-7.143c-17.397 0-31.5 14.102-31.5 31.5 0 17.396 14.103 31.5 31.5 31.5 8.51 0 16.226-3.381 21.895-8.865" id="logo-ac-3-path-3c"></path></g></svg>