<svg width="1320" height="64" viewBox="0 0 1320 64" fill="none" xmlns="http://www.w3.org/2000/svg">
<mask id="mask0_269_9349" style="mask-type:alpha" maskUnits="userSpaceOnUse" x="0" y="0" width="1320" height="64">
<rect x="1320" y="64" width="1320" height="64" transform="rotate(180 1320 64)" fill="#472CBB"/>
</mask>
<g mask="url(#mask0_269_9349)">
<mask id="path-2-inside-1_269_9349" fill="white">
<path fillRule="evenodd" clipRule="evenodd" d="M690 0L692 -4H628L630 0H-620V4H632L660 60L688 4H1940V0H690Z"/>
</mask>
<path d="M692 -4L695.578 -2.21115L698.472 -8H692V-4ZM690 0L686.422 -1.78885L683.528 4H690V0ZM628 -4V-8H621.528L624.422 -2.21115L628 -4ZM630 0V4H636.472L633.578 -1.78885L630 0ZM-620 0V-4H-624V0H-620ZM-620 4H-624V8H-620V4ZM632 4L635.578 2.21115L634.472 0H632V4ZM660 60L656.422 61.7889L660 68.9443L663.578 61.7889L660 60ZM688 4V0H685.528L684.422 2.21115L688 4ZM1940 4V8H1944V4H1940ZM1940 0H1944V-4H1940V0ZM688.422 -5.78886L686.422 -1.78885L693.578 1.78885L695.578 -2.21115L688.422 -5.78886ZM628 0H692V-8H628V0ZM633.578 -1.78885L631.578 -5.78886L624.422 -2.21115L626.422 1.78885L633.578 -1.78885ZM-620 4H630V-4H-620V4ZM-616 4V0H-624V4H-616ZM632 0H-620V8H632V0ZM663.578 58.2111L635.578 2.21115L628.422 5.78885L656.422 61.7889L663.578 58.2111ZM684.422 2.21115L656.422 58.2111L663.578 61.7889L691.578 5.78885L684.422 2.21115ZM1940 0H688V8H1940V0ZM1936 0V4H1944V0H1936ZM690 4H1940V-4H690V4Z" fill="#472CBB" mask="url(#path-2-inside-1_269_9349)"/>
</g>
</svg>
