<svg width="1440" height="64" viewBox="0 0 1440 64" fill="none" xmlns="http://www.w3.org/2000/svg">
<mask id="mask0_269_9333" style="mask-type:alpha" maskUnits="userSpaceOnUse" x="0" y="0" width="1440" height="64">
<rect width="1440" height="64" transform="matrix(-1 0 0 1 1440 0)" fill="#181818"/>
</mask>
<g mask="url(#mask0_269_9333)">
<mask id="path-2-inside-1_269_9333" fill="white">
<path fill-rule="evenodd" clip-rule="evenodd" d="M750 64L752 68H688L690 64H-560V60H692L720 4L748 60H2000V64H750Z"/>
</mask>
<path d="M752 68L755.578 66.2111L758.472 72H752V68ZM750 64L746.422 65.7889L743.528 60H750V64ZM688 68V72H681.528L684.422 66.2111L688 68ZM690 64V60H696.472L693.578 65.7889L690 64ZM-560 64V68H-564V64H-560ZM-560 60H-564V56H-560V60ZM692 60L695.578 61.7889L694.472 64H692V60ZM720 4L716.422 2.21115L720 -4.94427L723.578 2.21115L720 4ZM748 60V64H745.528L744.422 61.7889L748 60ZM2000 60V56H2004V60H2000ZM2000 64H2004V68H2000V64ZM748.422 69.7889L746.422 65.7889L753.578 62.2111L755.578 66.2111L748.422 69.7889ZM688 64H752V72H688V64ZM693.578 65.7889L691.578 69.7889L684.422 66.2111L686.422 62.2111L693.578 65.7889ZM-560 60H690V68H-560V60ZM-556 60V64H-564V60H-556ZM692 64H-560V56H692V64ZM723.578 5.78885L695.578 61.7889L688.422 58.2111L716.422 2.21115L723.578 5.78885ZM744.422 61.7889L716.422 5.78885L723.578 2.21115L751.578 58.2111L744.422 61.7889ZM2000 64H748V56H2000V64ZM1996 64V60H2004V64H1996ZM750 60H2000V68H750V60Z" fill="#472CBB" mask="url(#path-2-inside-1_269_9333)"/>
</g>
</svg>
