<svg width="1320" height="173" viewBox="0 0 1320 173" fill="none" xmlns="http://www.w3.org/2000/svg">
<mask id="mask0_356_2008" style="mask-type:alpha" maskUnits="userSpaceOnUse" x="535" y="0" width="250" height="142">
<path fill-rule="evenodd" clip-rule="evenodd" d="M535 0H785V141.667H703.753L659.169 52.4994L614.585 141.667H535V0Z" fill="#181818"/>
</mask>
<g mask="url(#mask0_356_2008)">
<path d="M644.86 105.637L640.446 115.246L687.855 211.667H762.498L659.083 3.3335L557.498 211.634H566.391C579.666 182.218 643.291 52.6876 659.083 20.5911L750.381 204.024H693.491L644.893 105.637H644.86Z" fill="#472CBB"/>
</g>
<mask id="mask1_356_2008" style="mask-type:alpha" maskUnits="userSpaceOnUse" x="535" y="76" width="250" height="98">
<rect x="785" y="173.004" width="250" height="96.6667" transform="rotate(180 785 173.004)" fill="#181818"/>
</mask>
<g mask="url(#mask1_356_2008)">
<rect x="565.155" y="63.001" width="134.13" height="134.13" transform="rotate(-45 565.155 63.001)" stroke="#472CBB" stroke-width="12"/>
</g>
<mask id="mask2_356_2008" style="mask-type:alpha" maskUnits="userSpaceOnUse" x="0" y="0" width="1320" height="126">
<rect width="1320" height="126" transform="matrix(-1 0 0 1 1320 0)" fill="#181818"/>
</mask>
<g mask="url(#mask2_356_2008)">
<mask id="path-6-inside-1_356_2008" fill="white">
<path fill-rule="evenodd" clip-rule="evenodd" d="M716.5 126L724 141H596L603.5 126H-620V122H605.5L660 13L714.5 122H1940V126H716.5Z"/>
</mask>
<path d="M724 141L727.578 139.211L730.472 145H724V141ZM716.5 126L712.922 127.789L710.028 122H716.5V126ZM596 141V145H589.528L592.422 139.211L596 141ZM603.5 126V122H609.972L607.078 127.789L603.5 126ZM-620 126V130H-624V126H-620ZM-620 122H-624V118H-620V122ZM605.5 122L609.078 123.789L607.972 126H605.5V122ZM660 13L656.422 11.2111L660 4.05573L663.578 11.2111L660 13ZM714.5 122V126H712.028L710.922 123.789L714.5 122ZM1940 122V118H1944V122H1940ZM1940 126H1944V130H1940V126ZM720.422 142.789L712.922 127.789L720.078 124.211L727.578 139.211L720.422 142.789ZM596 137H724V145H596V137ZM607.078 127.789L599.578 142.789L592.422 139.211L599.922 124.211L607.078 127.789ZM-620 122H603.5V130H-620V122ZM-616 122V126H-624V122H-616ZM605.5 126H-620V118H605.5V126ZM663.578 14.7889L609.078 123.789L601.922 120.211L656.422 11.2111L663.578 14.7889ZM710.922 123.789L656.422 14.7889L663.578 11.2111L718.078 120.211L710.922 123.789ZM1940 126H714.5V118H1940V126ZM1936 126V122H1944V126H1936ZM716.5 122H1940V130H716.5V122Z" fill="#472CBB" mask="url(#path-6-inside-1_356_2008)"/>
</g>
</svg>
