<svg width="1271" height="809" viewBox="0 0 1271 809" fill="none" xmlns="http://www.w3.org/2000/svg">
<path fillRule="evenodd" clipRule="evenodd" d="M802.903 52.3348C863.512 18.1371 931.923 0.112838 1001.54 0.000271775C1100.75 -0.114927 1196.5 36.3961 1270.38 102.514L1124.87 277.684L1113.16 268.104C1087.33 247.107 1056.08 233.838 1023.02 229.835C989.961 225.831 956.44 231.255 926.337 245.479C896.233 259.703 870.777 282.147 852.911 310.215C835.046 338.282 825.501 370.827 825.381 404.085C825.49 437.05 834.858 469.323 852.421 497.235C869.984 525.147 895.037 547.578 924.731 561.978C954.425 576.377 987.57 582.167 1020.4 578.689C1053.22 575.211 1084.41 562.605 1110.42 542.305L1129.73 565.818C1099.27 589.812 1062.66 604.764 1024.09 608.967C985.524 613.169 946.549 606.452 911.622 589.583C876.696 572.714 847.225 546.374 826.577 513.572C805.93 480.77 794.939 442.829 794.859 404.085C794.955 366.337 805.408 329.337 825.084 297.106C844.759 264.875 872.904 238.646 906.46 221.269C940.016 203.891 977.7 196.031 1015.42 198.542C1053.13 201.052 1089.44 213.838 1120.39 235.509L1227.4 106.744C1162.62 57.0872 1083.2 30.2291 1001.54 30.3564C902.302 30.4551 807.158 69.8577 736.977 139.92C666.795 209.983 627.307 304.985 627.175 404.085C627.093 453.197 636.721 501.842 655.507 547.23C674.293 592.618 701.867 633.856 736.648 668.578C771.429 703.299 812.731 730.822 858.187 749.568C903.643 768.313 952.358 777.912 1001.54 777.813C1087.07 778 1170.05 748.737 1236.49 694.956L1255.68 718.345C1183.92 776.569 1094.97 808.169 1001.54 808.169C927.712 808.282 855.268 788.186 792.078 750.065C771.428 737.607 752.024 723.38 734.062 707.591L781.2 802.59H496.754L316.093 435.011L332.913 398.378H333.038L515.443 765.084H732.235L661.424 623.324C654.872 613.17 648.762 602.701 643.121 591.944C635.075 576.566 628.054 560.736 622.08 544.558L387.111 74.1604C326.933 196.521 84.4743 690.323 33.8894 802.465H0L387.111 8.37L598.102 433.587C597.108 419.775 596.822 405.885 597.257 391.971C599.427 322.485 619.49 254.729 655.51 195.24C691.53 135.75 742.293 86.5325 802.903 52.3348Z" fill="#09ECD0"/>
</svg>
